<svg class="icon" viewBox="0 0 1024 1024" xmlns="http://www.w3.org/2000/svg" width="128" height="128"><defs><style/></defs><path d="M892.3 413.9h-453c-37.2 0-67.3 30.1-67.3 67.3v375.1c0 37.2 30.1 67.3 67.3 67.3h172.2l24.6 42.6c13.2 22.9 46.3 22.9 59.5 0l24.6-42.6h172.2c37.2 0 67.3-30.1 67.3-67.3v-375c0-37.2-30.2-67.4-67.4-67.4z"/><path d="M708.7 81.8H130.3c-37.2 0-67.3 30.1-67.3 67.3v618.3c0 37.2 30.1 67.3 67.3 67.3h578.4c37.2 0 67.3-30.1 67.3-67.3V149.1c.1-37.2-30.1-67.3-67.3-67.3z"/><path d="M633.8 247.2H199.3c-18.6 0-33.7 15.1-33.7 33.7s15.1 33.7 33.7 33.7h434.5c18.6 0 33.7-15.1 33.7-33.7s-15.1-33.7-33.7-33.7zM419.5 424.6H199.3c-18.6 0-33.7 15.1-33.7 33.7s15.1 33.7 33.7 33.7h220.2c18.6 0 33.7-15.1 33.7-33.7s-15.1-33.7-33.7-33.7z"/></svg>