<svg class="icon" viewBox="0 0 1139 1024" xmlns="http://www.w3.org/2000/svg" width="142.375" height="128"><defs><style/></defs><path d="M1137.576 325.281q.908 4.543.908 8.178v8.177q0 43.613-15.446 82.23t-41.796 68.599V1024h-1024V491.556q-26.35-29.984-41.796-68.145T0 341.636V0h1137.576v325.281zM966.758 561.52q-13.63 3.635-27.258 5.452t-29.076 1.817q-51.79 0-95.404-20.898t-75.414-55.425q-31.801 34.527-75.414 55.425t-95.404 20.898q-50.882 0-94.495-20.898t-75.415-55.425q-31.8 34.527-75.414 55.425t-95.404 20.898q-28.166 0-57.242-7.269v348.905h795.94V561.52z"/></svg>