<?xml version="1.0" standalone="no"?><!DOCTYPE svg PUBLIC "-//W3C//DTD SVG 1.1//EN" "http://www.w3.org/Graphics/SVG/1.1/DTD/svg11.dtd"><svg t="1582007438602" class="icon" viewBox="0 0 1024 1024" version="1.1" xmlns="http://www.w3.org/2000/svg" p-id="4836" xmlns:xlink="http://www.w3.org/1999/xlink" width="200" height="200"><defs><style type="text/css"></style></defs><path d="M91.463108 382.860804l0 475.698213c0 40.900525 33.464159 74.363661 74.363661 74.363661l692.345438 0c40.900525 0 74.363661-33.464159 74.363661-74.363661L932.535869 382.860804c-122.882702 24.747637-266.748297 38.981826-420.536892 38.981826C358.211405 421.843654 214.34581 407.608441 91.463108 382.860804z" p-id="4837"></path><path d="M880.159988 91.076298 143.840012 91.076298c-43.497677 0-79.087243 35.589566-79.087243 79.087243l0 145.084353c0 0-0.260943 23.342638 11.588943 36.913724 9.809413 11.234879 28.500101 16.57449 49.27117 20.034289 116.405173 19.383466 247.596098 30.284747 386.386094 30.284747 142.257981 0 273.736455-10.977006 392.287501-31.278377 17.748223-3.039219 31.06246-9.466606 40.754193-17.689894 14.204513-12.050454 14.204513-36.963866 14.204513-36.963866L959.245184 170.163541C959.24723 126.665865 923.657664 91.076298 880.159988 91.076298zM512 357.706915c-26.336832 0-47.687092-21.350261-47.687092-47.687092 0-26.336832 21.350261-47.687092 47.687092-47.687092s47.687092 21.350261 47.687092 47.687092C559.686069 336.356654 538.336832 357.706915 512 357.706915z" p-id="4838"></path></svg>