<svg class="icon" viewBox="0 0 1024 1024" xmlns="http://www.w3.org/2000/svg" width="200" height="200"><defs><style/></defs><path d="M91.463 382.86V858.56c0 40.9 33.464 74.364 74.364 74.364h692.345c40.9 0 74.364-33.464 74.364-74.364V382.861c-122.883 24.747-266.748 38.982-420.537 38.982-153.788 0-297.653-14.235-420.536-38.982z"/><path d="M880.16 91.076H143.84c-43.498 0-79.087 35.59-79.087 79.088v145.084s-.261 23.343 11.589 36.914c9.81 11.234 28.5 16.574 49.27 20.034C242.019 391.579 373.21 402.48 512 402.48c142.258 0 273.736-10.977 392.287-31.279 17.749-3.039 31.063-9.466 40.755-17.69 14.204-12.05 14.204-36.963 14.204-36.963V170.164c.002-43.498-35.587-79.088-79.085-79.088zM512 357.706c-26.337 0-47.687-21.35-47.687-47.686 0-26.337 21.35-47.687 47.687-47.687s47.687 21.35 47.687 47.687c0 26.337-21.35 47.687-47.687 47.687z"/></svg>