<svg class="icon" viewBox="0 0 1027 1024" xmlns="http://www.w3.org/2000/svg" width="128.375" height="128"><defs><style/></defs><path d="M318.464 570.368H450.56l-2.048 135.168h-128zm322.56 6.144h128v129.024h-128V576.512zM448.512 256h192.512v129.024H448.512V256zM892.928 64.512q28.672 0 52.736 10.752t41.984 29.184 28.16 43.52 10.24 53.76v621.568q0 28.672-10.24 53.76t-28.16 43.52-41.984 29.184-52.736 10.752h-691.2q-28.672 0-53.76-10.752t-43.52-29.184-29.184-43.52-10.752-53.76V201.728q0-28.672 10.752-53.76t29.184-43.52 43.52-29.184 53.76-10.752h691.2zM512 829.44q-1.024-5.12-1.536-29.184t-.512-56.832v-71.68q0-37.888.512-71.168t1.024-57.344 1.536-30.208q-6.144 1.024-25.088 1.536t-45.056 1.024-55.296.512-55.808-.512-47.104-1.024-27.648-1.536q1.024 5.12 1.536 28.672t1.024 56.832.512 71.68-.512 72.704-1.024 59.392-1.536 31.232h61.44l2.048-64.512h128l2.048 60.416H512zM385.024 448.512q10.24-1.024 35.84-2.048t58.88-1.536 70.144-.512 69.12.512 55.808 1.024 30.72 1.536q-1.024-5.12-1.536-24.576t-1.024-46.08-.512-56.832.512-56.832 1.024-46.08 1.536-24.576q-7.168 1.024-31.232 1.536t-56.832 1.024-69.632.512h-70.656q-32.768 0-57.856-1.024t-34.304-2.048q1.024 4.096 1.536 23.04t.512 45.568v115.712q0 27.648-.512 47.104t-1.536 24.576zm447.488 377.856q-1.024-5.12-1.024-28.672v-199.68q0-32.768.512-56.32t1.536-28.672q-7.168 1.024-26.624 1.536t-46.08 1.024-56.32.512h-55.296q-25.6 0-45.568-.512t-26.112-1.536q1.024 5.12 1.536 29.184t.512 56.832V744.448q0 33.792-.512 58.368t-1.536 30.72h59.392l4.096-64.512h128l3.072 57.344h60.416z"/></svg>