<svg class="icon" viewBox="0 0 1024 1024" xmlns="http://www.w3.org/2000/svg" width="200" height="200"><defs><style/></defs><path d="M61.14 310.392q0-26.58 18.913-44.983t45.495-18.403h64.408V534.29h-64.408q-26.582 0-45.495-18.402t-18.914-44.984v-160.51zM776.79 46.623Q820.753 4.707 856.535.617t63.387 18.914 47.028 67.476 31.694 99.169 18.402 114.504 6.134 113.993-7.668 108.37-22.491 101.725-34.76 83.323-44.473 53.162-52.652 12.269-58.786-39.872q-29.648-34.76-80.255-57.764t-110.415-38.85-121.15-25.558-112.46-17.38-85.366-14.825-38.339-17.38V241.894q4.09-14.313 32.205-23.514T358.135 201t98.146-17.891 111.438-26.582 110.926-42.939 98.146-66.965zM408.741 673.33q5.112 12.269 12.269 26.582 6.134 13.29 16.358 30.67t24.536 37.828q17.38 24.537 35.272 51.63t27.092 49.072 5.623 36.294-29.137 14.313h-58.275q-20.447 0-37.827-7.667t-33.227-23.515-32.715-40.383-36.294-58.275q-23.514-38.85-32.715-67.986t-12.269-48.563q-4.09-22.492 0-38.85 8.18 1.023 19.425 4.09 9.201 2.045 22.492 5.112t30.67 6.134q17.381 4.09 31.183 7.668t25.048 7.668q12.268 4.089 22.492 8.178z"/></svg>