<svg class="icon" viewBox="0 0 1024 1024" xmlns="http://www.w3.org/2000/svg" width="128" height="128"><defs><style/></defs><path d="M187.392 70.656q28.672 0 48.64 19.456T256 138.24v52.224q0 28.672-19.968 48.64t-48.64 19.968H133.12q-27.648 0-47.616-19.968t-19.968-48.64V138.24q0-28.672 19.968-48.128t47.616-19.456h54.272zm702.464 0q27.648 0 47.616 19.456t19.968 48.128v52.224q0 28.672-19.968 48.64t-47.616 19.968H452.608q-28.672 0-48.64-19.968T384 190.464V138.24q0-28.672 19.968-48.128t48.64-19.456h437.248zM187.392 389.12q28.672 0 48.64 19.968T256 457.728v52.224q0 27.648-19.968 47.616t-48.64 19.968H133.12q-27.648 0-47.616-19.968t-19.968-47.616v-52.224q0-28.672 19.968-48.64t47.616-19.968h54.272zm702.464 0q27.648 0 47.616 19.968t19.968 48.64v52.224q0 27.648-19.968 47.616t-47.616 19.968H452.608q-28.672 0-48.64-19.968T384 509.952v-52.224q0-28.672 19.968-48.64t48.64-19.968h437.248zM187.392 708.608q28.672 0 48.64 19.968T256 776.192v52.224q0 28.672-19.968 48.64t-48.64 19.968H133.12q-27.648 0-47.616-19.968t-19.968-48.64v-52.224q0-27.648 19.968-47.616t47.616-19.968h54.272zm702.464 0q27.648 0 47.616 19.968t19.968 47.616v52.224q0 28.672-19.968 48.64t-47.616 19.968H452.608q-28.672 0-48.64-19.968T384 828.416v-52.224q0-27.648 19.968-47.616t48.64-19.968h437.248z"/></svg>