<svg class="icon" viewBox="0 0 1481 1024" xmlns="http://www.w3.org/2000/svg" width="289.258" height="200"><defs><style/></defs><path d="M0 286.736c0-29.477 5.025-50.502 14.51-63.24 9.672-12.559 30.967-18.697 64.36-18.697h205.36v819.014h-88.172c-23.622 0-46.783-.184-69.753-.743-23.16-.369-38.785-.745-47.344-.745-28.923 1.121-49.295-3.813-61.103-14.879C6.136 996.566.091 975.642.091 945.13V709.362c0-12 2.043-21.117 5.676-26.879 3.626-5.953 11.44-10.14 23.247-12.376 4.37 0 10.047-1.675 17.767-4.924 7.344-3.443 14.88-8.743 22.323-15.817 7.437-7.068 13.951-16.178 19.252-27.81 5.3-11.345 8.09-25.204 8.09-41.758 0-25.113-6.6-44.64-19.997-58.873-13.39-14.137-27.717-22.509-42.781-24.46-11.63-2.136-20.28-5.862-25.58-10.694C2.695 480.658 0 472.283 0 460.292V286.736zm133.28-155.599V88.45c0-21.67 8.458-42.042 24.922-60.549C174.663 9.395 192.708 0 211.96 0h221.73v131.137H133.28zm1308.874 355.38c-8.365 2.32-14.695 6.884-18.506 14.135-3.443 6.883-5.677 14.881-5.677 23.439 0 8.926 2.143 17.299 5.677 25.39 3.81 8.372 10.14 14.14 18.506 17.298 8.558 3.443 15.44 9.955 20.188 19.626 4.924 9.951 7.62 20.182 7.996 31.252a87.89 87.89 0 0 1-4.002 31.066c-3.257 9.764-7.996 16.923-14.32 21.386-21.393 13.114-31.994 27.81-31.994 44.178s10.508 32.925 31.994 49.017c4.37 3.443 8.182 9.488 11.993 17.946 3.633 8.933 5.491 17.584 5.491 26.51 0 8.743-1.95 16.186-6.328 22.692-4.37 6.7-11.808 9.955-22.502 9.955h-86.683c-6.138 0-9.77-.561-10.14-1.858-.56-1.121.186-2.889 2.137-5.492 2.143-2.88 4.746-5.862 8.003-9.302 3.25-3.25 5.855-7.068 8.182-11.439 5.3-15.25 5.3-28.363 0-39.246-5.486-11.072-14.32-20.18-27.439-27.81-8.55-4.37-14.879-11.253-18.321-20.74-3.811-9.112-5.3-18.69-4.74-28.554.37-9.95 2.137-18.507 5.486-26.135 3.257-7.815 8.19-13.297 14.327-16.554 8.743-3.257 15.065-9.302 19.252-17.953 4.37-8.557 6.507-17.945 6.507-27.809 0-9.856-1.859-18.883-4.74-27.063-3.257-8.181-7.996-13.95-14.695-17.115-8.373-4.558-15.065-10.877-19.997-19.811-4.839-8.367-7.159-18.13-7.159-29.106 0-11.07 1.951-21.577 6.322-31.997 4.37-10.416 11.07-18.88 20.741-25.388 6.7-4.372 11.998-10.325 16.185-17.952 4.556-7.813 6.507-15.81 7.437-24.553.561-8.833-1.49-17.206-4.932-25.387-3.81-8.282-10.508-14.98-20.18-20.465-10.508-5.394-18.506-13.49-23.253-23.715-4.74-10.416-7.252-21.208-7.252-31.995 0-11.07 2.513-21.3 7.252-31.25 4.747-9.67 11.446-17.484 19.996-23.068 18.137-9.67 28.37-23.16 29.768-39.992 1.675-16.923.369-32.649-4.002-46.598-3.442-11.063-9.671-20.834-19.066-29.575-9.764-8.836-22.133-13.114-37.02-13.114H531.812V0h904.205c7.445 0 13.583 2.788 18.883 8.182 5.486 5.491 9.112 11.998 10.694 19.718 1.675 7.63 1.12 15.533-1.675 23.715-2.512 8.096-7.62 15.164-15.25 20.648-6.514 5.494-12.183 12.376-16.93 21.21-4.924 8.743-7.251 17.67-8.181 27.063-.376 9.395 1.113 18.507 4.187 27.902 3.066 9.21 8.926 16.092 17.577 20.463 11.998 6.509 20.74 15.533 26.503 26.88 5.953 11.438 9.026 22.877 9.026 34.223 0 11.63-3.072 22.23-8.926 31.994-5.862 9.95-13.958 17.116-24.743 21.303-11.815 4.555-20.556 10.694-25.766 18.875-5.486 8.28-8.182 17.299-8.926 26.97-.562 9.864 1.49 19.443 6.138 28.647 4.932 9.395 12.745 17.491 23.437 23.998 10.694 6.322 18.697 15.065 23.436 26.135 4.747 10.792 6.7 21.669 6.322 32.739-.554 10.877-3.25 20.924-7.996 30.32-4.925 9.111-11.908 14.412-21.672 15.533zm-208.7-24.557c-12.746 3.257-22.693 9.679-29.768 18.698-6.883 9.486-10.509 18.88-11.254 28.92-.368 9.772 2.327 19.628 8.004 29.577 6.138 9.679 14.696 16.745 26.687 21.117 10.516 4.556 18.697 11.069 23.998 19.619 5.486 8.934 8.372 18.138 8.926 28.002.562 9.856-1.482 19.251-5.67 27.81-4.186 8.742-10.7 15.44-19.25 19.62-26.695 13.304-40.738 29.113-41.576 47.62-1.306 18.512 8.927 33.2 30.32 44.363 9.671 4.37 17.484 11.07 23.246 20.37 5.953 9.305 9.12 19.069 9.771 29.577.554 10.14-1.49 19.626-5.862 27.624-4.187 8.558-11.253 13.95-20.74 17.485-12.929 3.257-22.693 9.11-29.944 17.952-6.7 8.55-10.326 17.944-10.885 27.617-.745 10.14 1.95 19.811 7.996 29.582 5.862 9.948 15.255 18.13 27.993 24.736 8.748 4.37 14.696 11.253 18.512 20.372 3.811 9.48 5.116 18.322 4.187 27.063-1.306 8.743-4.187 16.74-9.119 23.622-4.739 7.25-11.438 10.694-20.18 10.694H379.004V204.8h849.518c8.558 0 15.44 3.349 20.365 10.693 4.747 7.074 7.26 14.887 8.004 23.722.554 8.834-1.49 17.484-5.862 26.133-4.187 8.65-11.253 14.788-20.741 17.953-9.671 3.342-17.484 8.833-23.437 16.463-5.953 7.528-9.302 16.178-10.508 25.295-.93 9.388 1.298 18.229 6.506 27.065 5.492 8.833 14.51 15.347 27.439 19.62 9.488 4.378 17.484 10.885 23.253 19.718 5.762 8.834 9.303 17.675 9.672 26.88.561 9.578-1.675 18.136-6.322 26.51-4.746 7.996-12.56 13.858-23.437 17.108zM846.361 571.895c-5.116 0-10.885-.556-16.93-1.675-5.77-1.3-6.883-4.558-4.002-9.95 1.306-1.952 6.328-9.763 15.44-22.884a849.643 849.643 0 0 1 30.505-41.758c11.254-14.881 21.393-28.74 31.442-41.76 9.488-13.112 15.434-21.294 17.485-24.736 5.485-8.558 2.136-18.881-9.672-30.972-1.958-2.236-6.328-5.586-12.928-10.05-6.138-4.277-12.09-7.527-17.391-9.67-8.743-3.158-14.887-3.811-18.698-1.583-3.442 2.144-8.182 6.976-13.482 14.696-2.144 3.165-7.444 11.16-16.185 23.63-8.466 12.828-17.577 26.041-27.256 40.268-9.578 14.318-18.507 27.063-26.503 38.316-8.182 11.632-12.652 18.322-13.582 20.65-2.044 4.188-6.23 6.046-12.184 4.933-5.861-1.121-9.763-3.819-11.807-8.19-1.306-2.135-5.953-8.555-14.603-19.067-8.65-10.133-17.86-21.762-27.348-35.06-9.486-13.305-18.874-25.204-27.993-36.835-9.21-11.53-15.255-19.342-18.597-23.898-9.679-18.513-19.811-24.46-30.413-17.86-7.536 4.28-14.327 8.926-20.28 13.765-5.861 5.117-11.438 9.21-16.739 12.56-10.694 7.437-12.276 17.391-4.839 29.384 18.136 21.762 34.322 41.95 48.272 60.641 11.715 15.255 22.878 29.768 33.763 44.364 10.6 13.958 17.015 22.14 19.066 24.559 2.227 4.187 0 6.507-6.422 6.507h-19.066c-5.3 0-13.206.185-23.246.743-10.325.563-19.72.376-28.369-.743-8.467 0-15.533 1.949-20.926 6.514-5.208 4.187-6.883 9.67-4.654 16.176 1.028 4.565 1.582 11.072 1.582 19.63v19.996c0 5.3 1.49 8.372 4.84 8.926 3.256.469 6.882.652 11.253.652h93.19c12.652 0 19.066 2.696 19.066 8.19v31.058c0 5.677-.93 8.373-3.157 8.373h-107.61c-6.329-1.114-10.516.561-12.743 4.74-2.043 4.562-3.626 9.487-4.839 14.886-1.115 5.669-1.115 10.694 0 15.433 1.213 5.113 1.49 9.302 1.49 12.376 0 14.32 6.975 21.386 20.926 21.386h96.445c5.586 0 8.65.745 9.58 2.327 1.029 1.675 1.675 5.3 1.675 10.694 1.121 5.491 1.49 15.255.745 29.391-.461 14.327-.837 23.53-.837 28.091 0 11.995 6.975 17.947 20.833 17.947h51.53c8.55 0 12.92-2.695 12.92-8.365v-65.388c0-11.062 4.933-16.554 14.328-16.554h14.51c7.437 0 15.995-.185 24.921-.93 9.303-.368 17.953-.744 26.325-.744h20.927c14.88 0 22.692-5.486 22.692-16.178v-36.184c0-9.953-5.3-14.877-15.995-14.877h-93.38c-10.509 2.32-16.185 0-16.185-6.514 0-3.067-.186-7.252-.745-12.184-.554-4.924-.645-9.302-.645-13.858 0-4.19 1.675-7.628 5.486-9.671 3.91-2.327 7.905-3.443 12.09-3.443h94.865c10.509 0 16.002-3.626 16.002-11.438v-39.34c0-4.37-1.858-8.557-5.676-12.927-3.812-4.564-8.366-6.515-13.575-6.515h-54.692v-.001zm0 0"/></svg>