<svg class="icon" viewBox="0 0 1054 1024" xmlns="http://www.w3.org/2000/svg" width="131.75" height="128"><defs><style/></defs><path d="M500.736 610.304q23.552 11.264 39.936 24.576t17.408 28.672 1.024 34.816v32.768q-1.024 12.288-8.192 24.064t-27.648 25.088q-10.24 6.144-27.648 14.848t-42.496 15.872-58.368 12.288-74.24 5.12-73.216-5.12-56.32-11.776-41.472-13.824-28.672-13.312Q97.28 773.12 83.456 760.832t-15.872-22.528q-2.048-9.216-2.56-31.232t.512-38.4q1.024-15.36 11.776-28.16t35.328-25.088q9.216-4.096 19.456-5.12-4.096-2.048-7.68-3.584t-7.68-3.584q-23.552-11.264-37.376-24.064t-15.872-22.016q-2.048-10.24-2.56-32.256t.512-37.376 11.776-28.16 35.328-25.088q5.12-3.072 12.288-4.096t15.36-2.048q-5.12-2.048-9.728-4.096t-9.728-4.096q-23.552-11.264-37.376-24.064t-15.872-23.04q-2.048-9.216-2.56-31.232t.512-37.376q1.024-16.384 12.288-28.16t34.816-25.088q17.408-11.264 69.12-23.04t126.464-11.776q67.584 0 118.272 9.216t74.24 20.48 39.936 24.576 17.408 27.648q1.024 15.36 1.024 35.84v31.744q-1.024 12.288-8.192 24.064t-27.648 25.088q-5.12 3.072-10.752 6.656t-13.824 6.656q1.024 1.024 2.048 1.024 23.552 10.24 39.936 24.064t17.408 29.184q1.024 14.336 1.024 33.792v33.792q-1.024 12.288-8.192 23.552t-27.648 25.6q-4.096 2.048-8.704 5.12t-10.752 6.144h1.024zM106.496 322.56q-5.12 16.384 3.584 22.528t19.968 11.264q5.12 3.072 11.776 5.12t11.776 4.096q6.144 2.048 12.288 3.072l-1.024 36.864q0 11.264 8.192 14.848t17.408 3.584 15.36-1.024 7.168-12.288V378.88q7.168 1.024 22.528 2.56t28.672 2.56q5.12 0 9.728.512t8.704.512h7.168l1.024 39.936q0 11.264 7.168 13.824t15.36 2.56q20.48-1.024 23.552-2.56t3.072-12.8v-39.936q6.144-1.024 12.288-1.024h12.288q6.144 0 12.288-1.024 14.336-2.048 20.48-3.072 4.096-1.024 5.12-2.048v35.84q0 13.312 22.528 13.312 13.312-1.024 17.92-4.608t4.608-8.704v-41.984l12.288-3.072q5.12-2.048 12.8-4.096t15.872-5.12q25.6-9.216 22.528-25.6-2.048-7.168-6.144-9.728t-9.216-2.56-11.776 2.048-12.8 3.072q-32.768 6.144-77.312 10.24t-85.504 4.096q-19.456 0-40.96-2.048t-41.984-5.12-37.888-6.656-28.672-7.68q-4.096-1.024-11.776-3.072t-16.384-2.56-15.36 1.024-8.704 6.656zm0 183.296q-7.168 13.312 2.56 21.504t20.992 13.312q5.12 3.072 11.776 4.608t11.776 3.584q6.144 2.048 12.288 3.072l-1.024 37.888q0 11.264 8.192 14.848t17.408 3.584 16.896-1.536 8.704-11.776V563.2q7.168 1.024 20.992 2.56t27.136 1.536q5.12 0 9.728.512t8.704.512h7.168v44.032q0 9.216 5.632 10.752t17.92 1.536q24.576 2.048 24.576-12.288v-40.96q6.144-1.024 13.312-2.048 6.144-1.024 12.8-1.024t12.8-1.024q14.336-2.048 20.48-3.072 4.096-1.024 5.12-1.024v35.84q0 14.336 22.528 12.288h1.024q5.12-1.024 13.312-3.072 8.192-4.096 8.192-12.288v-39.936l12.288-3.072q5.12-2.048 12.8-3.584t15.872-4.608q24.576-10.24 22.528-25.6-2.048-11.264-14.848-10.752t-25.088 2.56q-16.384 3.072-32.256 6.144t-33.792 5.12-39.424 3.584-49.152 1.536q-60.416 0-97.792-7.68t-59.904-14.848q-4.096-1.024-11.776-3.072t-15.872-2.56-14.848.512-9.728 6.144zm386.048 220.16q24.576-8.192 22.528-25.6-2.048-11.264-14.848-10.24t-25.088 3.072q-32.768 5.12-70.144 10.24t-92.672 3.072q-19.456 0-41.472-1.536t-43.008-3.584-38.4-5.632-28.672-6.656q-4.096-1.024-11.264-3.072t-14.848-3.584-14.336-.512-9.728 5.12q-7.168 13.312 2.56 21.504t20.992 13.312q5.12 3.072 11.776 4.608t11.776 3.584q6.144 2.048 12.288 3.072v38.912q0 11.264 7.68 14.336t16.896 3.072 16.896.512 7.68-10.752q0-2.048.512-8.192t.512-12.288v-14.336q7.168 1.024 20.992 2.56t27.136 1.536q5.12 1.024 10.24 1.024h15.36l1.024 44.032q1.024 8.192 7.68 10.24t14.848 3.072q11.264 0 17.92-1.536t6.656-12.8v-41.984h13.312q6.144 0 12.8-.512t12.8-1.536q12.288 0 20.48-2.048 4.096-1.024 5.12-2.048v35.84q0 14.336 22.528 12.288 13.312 0 17.92-3.584t4.608-8.704V737.28l12.288-3.072q5.12-2.048 12.8-3.584t15.872-4.608zm501.76-196.608q23.552 10.24 40.448 24.064t17.92 28.16q1.024 15.36 1.024 35.328t-1.024 32.256-7.68 24.064-27.136 25.088q-20.48 14.336-71.168 31.232T814.08 746.496q-40.96 0-72.704-4.608t-55.808-11.264-41.472-14.336-28.672-12.8q-23.552-11.264-37.888-24.064t-16.384-23.04q-2.048-9.216-2.048-31.744v-36.864q1.024-16.384 11.776-29.184t35.328-24.064q12.288-6.144 27.648-6.144-11.264-4.096-18.432-9.216-23.552-11.264-37.888-24.064t-16.384-22.016q-2.048-10.24-2.048-32.768v-36.864q1.024-15.36 12.288-27.136t34.816-26.112q18.432-10.24 69.632-22.528t125.952-12.288q67.584 0 118.272 9.216t74.24 20.48 40.448 24.576 17.92 28.672q1.024 14.336 1.024 34.304t-1.024 33.28q-1.024 12.288-7.68 23.552t-27.136 25.6q-5.12 3.072-10.752 6.144t-13.824 7.168zM603.136 424.96q-5.12 11.264 4.096 18.944t20.48 12.8q5.12 3.072 11.776 4.608t11.776 3.584q6.144 2.048 12.288 3.072v37.888q0 11.264 7.68 14.848t16.896 3.584q10.24 0 17.92-1.536t7.68-11.776v-31.744q7.168 1.024 18.944 3.072t26.112 4.096q3.072 0 7.68.512t9.728.512q5.12 1.024 10.24 1.024v37.888q0 8.192 8.704 11.776t16.896 2.56q11.264 0 17.408-2.048t6.144-11.264v-39.936q7.168 0 14.336-1.024 6.144-1.024 12.8-1.536t12.8-1.536q12.288-2.048 17.408-3.072 4.096-1.024 7.168-1.024v35.84q0 8.192 6.144 10.24t17.408 2.048 16.384-3.584 5.12-8.704v-43.008l12.288-3.072q5.12-2.048 12.8-3.584t15.872-4.608q24.576-10.24 22.528-25.6-2.048-11.264-14.848-11.264t-25.088 3.072q-8.192 3.072-27.136 5.632t-42.496 5.12-48.128 4.096-45.056 1.536q-19.456 0-41.472-2.048t-42.496-5.12-37.888-6.656-28.672-6.656q-4.096-1.024-11.264-3.072t-15.36-2.56-15.36.512-10.24 7.168zm382.976 219.136q24.576-8.192 22.528-25.6-2.048-10.24-14.848-9.728t-25.088 2.56q-32.768 6.144-73.728 11.776t-89.088 5.632q-50.176 0-90.112-8.192t-62.464-16.384q-3.072-1.024-10.24-2.56t-14.848-2.56-14.336.512-9.728 6.656q-7.168 13.312 2.56 20.992t20.992 12.8q5.12 3.072 11.776 5.12t11.776 4.096q6.144 2.048 12.288 3.072v36.864q0 11.264 7.68 14.848t16.896 3.584q10.24 0 16.384-.512t7.168-11.776v-32.768q7.168 1.024 22.528 2.56t28.672 2.56h20.48v44.032q1.024 9.216 7.68 10.752t14.848 1.536q11.264 1.024 20.992-1.024t9.728-13.312v-37.888q6.144-1.024 13.312-2.048 6.144-1.024 12.8-1.024t12.8-1.024q13.312-1.024 19.456-3.072 4.096-1.024 5.12-2.048v36.864q0 8.192 6.144 10.24t17.408 2.048q13.312-1.024 17.408-4.608t4.096-8.704V655.36q5.12 0 12.288-2.048 5.12-2.048 12.8-4.096t15.872-5.12z"/></svg>