<svg class="icon" viewBox="0 0 1024 1024" xmlns="http://www.w3.org/2000/svg" width="128" height="128"><defs><style/></defs><path d="M142.705 510.466h-24.551q-8.184 0-14.322-.512t-14.322-.511H63.936V79.793q0-32.736 23.017-55.753t55.752-23.017h742.682q16.367 0 31.2 6.138t25.575 16.879 16.879 25.063 6.138 30.69v429.65H941.65q-9.206 0-15.856.511t-14.833.512H142.705zm830.658 68.539q17.39 0 28.643 6.138t11.253 20.46-9.719 24.55-30.177 10.23H51.66q-20.46 0-30.177-9.718t-9.719-20.97q0-14.322 10.741-22.506t29.155-8.184h921.703zm-521.719 126.85H580.54V962.62q0 29.667-20.46 45.523T514.047 1024q-27.62 0-45.011-18.925t-17.39-45.523V705.854z"/></svg>