<svg class="icon" viewBox="0 0 1024 1024" xmlns="http://www.w3.org/2000/svg" width="200" height="200"><defs><style/></defs><path d="M463.66 647.857q-2.029 11.153-5.07 17.236t-14.194 13.18q-26.36 16.222-56.777 26.36t-58.297 22.306-48.665 31.936-25.853 56.27q-2.028 11.152-2.535 21.798t-1.52 19.77q-1.015 2.028-2.029 3.548t-2.027 3.549q-39.54-3.042-80.095-7.097t-74.52-9.125-57.282-10.138-29.402-10.14q-9.125-7.096-13.687-42.581t3.548-92.262q5.07-31.43 25.854-48.158t49.172-26.36 58.297-17.743 53.228-22.305q18.25-12.166 27.88-22.305t13.688-20.784 4.055-21.798-1.013-24.333q-2.028-20.277-13.688-31.936t-25.853-23.826q-8.111-5.07-13.687-16.222t-9.632-22.305q-4.055-12.166-8.11-27.374-6.084-2.028-12.167-6.083-5.07-4.056-10.646-12.167t-10.645-22.305-4.056-26.867 5.07-21.798q4.055-11.152 11.152-18.25-1.014-32.443 3.042-65.9 4.055-27.375 13.18-58.804t27.374-56.777q16.222-24.332 36.5-39.54T255.31 14.7t42.076-11.66T338.954 0q50.693 0 91.248 21.291t60.831 45.624q13.18 17.235 16.73 31.936t9.63 33.965q-19.263 11.152-41.06 32.95t-38.02 44.103q-20.278 28.388-30.416 62.86t-15.208 63.873q-5.07 35.485-5.07 70.97-8.11 9.125-12.166 20.278-4.055 10.138-5.07 23.825t4.056 29.91q5.07 17.235 11.153 26.36t11.152 14.194q6.083 6.083 12.167 8.11 4.055 16.222 8.11 30.416 4.056 12.167 9.632 24.84t13.687 18.756q7.097 6.084 11.153 10.139t6.59 7.604 3.041 9.632 2.535 16.221zm540.387 186.55q4.056 14.195 6.59 34.472t2.535 41.062-3.042 39.033-9.124 27.375q-4.056 6.083-23.826 12.166t-49.172 11.152-64.888 9.632-71.477 7.604-69.45 5.07T663.39 1024t-58.297-2.028-68.436-5.069-69.956-6.59-63.367-8.111-48.665-9.125-24.84-8.618q-8.11-7.097-13.18-42.582t3.042-91.247q5.07-32.444 25.853-48.666t49.173-26.36 58.297-17.743 53.227-22.811q18.25-12.167 27.881-22.305t14.195-20.278 4.562-21.29-1.014-25.347q-2.028-20.278-14.194-31.937t-26.36-22.812q-7.097-6.083-12.674-17.235t-9.631-22.305q-4.056-12.167-8.111-27.375-6.083-2.027-12.167-6.083-5.069-4.055-10.645-12.166t-10.646-22.305-4.055-26.867 5.07-20.785q4.055-10.138 11.152-18.25-1.014-32.443 3.041-65.9 4.056-28.388 12.673-59.311t26.868-57.283q16.222-24.333 36.499-39.54t41.568-23.826 42.582-11.66 40.555-3.041q51.707 0 92.261 21.29t59.818 45.624q22.305 27.375 32.95 61.339t15.715 63.366q5.07 34.472 4.056 68.943 5.07 4.055 9.125 11.152 3.041 6.084 5.576 15.715t.507 23.826q-2.028 18.25-8.111 29.402t-12.167 17.236q-7.097 7.097-16.221 9.124-4.056 15.208-8.111 27.375-4.056 11.152-10.139 22.305t-13.18 16.221q-8.11 7.097-14.701 12.167t-11.66 10.645-8.617 12.673-5.576 17.236q-2.028 13.18-1.521 26.867t6.59 26.868 19.77 25.346 38.02 21.291q21.291 9.125 47.144 15.715t49.68 15.715 42.582 23.319 26.867 36.499z"/></svg>