<svg class="icon" viewBox="0 0 1024 1024" xmlns="http://www.w3.org/2000/svg" width="200" height="200"><defs><style/></defs><path d="M581.616 423.193q-46.216 19.03-84.729 50.747t-66.605 72.495-43.498 89.26-15.405 101.947q0 47.123 12.234 90.167t33.982 81.104h-24.467q-26.28 0-61.168-1.812t-72.043-4.984-73.855-7.25-66.605-8.609-50.747-9.062-26.28-9.061q-9.968-7.25-14.952-44.857t4.078-96.51q3.625-22.655 14.952-37.154t27.64-24.92 36.247-16.765 40.779-12.233 40.325-12.687 35.795-16.765q19.03-11.78 29.451-23.108t14.953-22.201 4.53-22.655-.906-26.28q-1.812-20.842-14.499-33.076t-28.092-24.92q-7.25-6.344-13.14-17.671t-10.42-23.108q-4.532-13.593-9.063-28.092-6.343-1.813-12.686-6.344-5.438-4.53-11.781-12.686t-10.874-23.561-3.625-28.092 5.437-22.655q3.625-9.968 11.78-19.03 0-34.436 3.625-68.871 3.625-28.998 12.687-62.528t28.092-59.808q18.124-25.374 38.966-41.232t43.498-24.92 44.856-12.234T393.128 0q26.28 0 52.106 5.89t48.481 15.859 40.326 22.655 27.639 25.373q23.561 28.998 34.435 63.887t15.406 66.605q4.53 36.248 4.53 73.402 6.344 4.53 9.969 11.78 3.625 6.344 5.89 16.312t.453 24.467q-1.812 19.936-7.703 31.264t-13.14 17.67q-8.155 7.25-17.217 9.969-1.812 5.437-3.625 11.78l-4.53 12.687q-1.813 6.343-4.532 13.593zm129.586 28.998q58.903 0 111.009 22.655t90.62 61.621 61.168 91.073 22.654 111.009T974 849.558 912.83 940.63t-90.62 61.168T711.203 1024q-59.809 0-111.915-22.202t-90.62-61.168-61.168-91.072-22.654-111.01 22.654-111.008 61.169-91.073 90.619-61.621 111.915-22.655zm166.74 230.174q5.437-18.124-4.984-33.077t-27.64-21.295-34.435-.906-25.373 28.092q-4.53 15.405-8.609 28.545t-8.156 27.639-9.968 31.264-14.952 38.513Q734.763 804.7 718 803.342t-25.827-19.484q-9.968-18.123-18.577-38.966t-16.765-40.779-14.499-36.248-10.874-26.28q-7.25-14.498-24.014-16.31t-32.623 4.983-26.28 21.296-3.172 31.717q6.344 18.124 14.5 40.779t17.217 46.215 17.218 46.216 14.5 38.967q13.592 34.435 41.23 51.653t57.997 18.124 57.997-13.593 40.326-43.497q9.968-23.562 20.389-49.388t19.936-50.294 17.671-47.122 13.593-38.966z"/></svg>