<svg class="icon" viewBox="0 0 1154 1024" xmlns="http://www.w3.org/2000/svg" width="225.391" height="200"><defs><style/></defs><path d="M1015.808 64.512q62.464 0 99.84 31.744t37.376 96.256v568.32q0 27.648-10.24 52.224t-28.16 43.008-41.984 29.184T1021.952 896H129.024q-26.624 0-50.176-10.24t-40.96-27.136T10.24 819.2 0 771.072V190.464q0-55.296 33.792-90.624t95.232-35.328h886.784zm-728.064 189.44q-19.456 0-36.864 7.168t-30.72 19.968-20.992 30.72-7.68 38.4 7.68 37.888 20.992 30.72 30.72 20.992 36.864 7.68q21.504 0 39.424-7.68t30.72-20.992 20.48-30.72 7.68-37.888q0-41.984-27.648-69.12t-70.656-27.136zm160.768 354.304q0-19.456-7.68-37.376t-20.48-30.72-30.72-20.48-37.376-7.68h-128q-39.936 0-67.584 28.16t-27.648 68.096v96.256h319.488v-96.256zm475.136 101.376q20.48 0 30.208-10.24t9.728-24.576-11.264-25.088-31.744-10.752H615.424q-20.48 0-30.72 10.752t-10.24 25.088 10.24 24.576 29.696 10.24h309.248zm1.024-132.096q20.48 0 29.696-10.24t9.216-24.576q0-15.36-8.704-25.6t-29.184-10.24H612.352q-20.48 0-29.696 10.24t-9.216 25.6q0 14.336 8.704 24.576t29.184 10.24h313.344zm1.024-130.048q15.36 0 26.624-10.24t11.264-24.576-11.264-23.04-26.624-8.704H717.824q-15.36 0-26.112 8.704t-10.752 23.04 10.752 24.576 26.112 10.24h207.872z"/></svg>