<?xml version="1.0" encoding="utf-8"?>
<!-- Svg Vector Icons : http://www.sfont.cn -->
<!DOCTYPE svg PUBLIC "-//W3C//DTD SVG 1.1//EN" "http://www.w3.org/Graphics/SVG/1.1/DTD/svg11.dtd">
<svg version="1.1" xmlns="http://www.w3.org/2000/svg" xmlns:xlink="http://www.w3.org/1999/xlink" x="0px" y="0px" viewBox="0 0 1000 1000" enable-background="new 0 0 1000 1000" xml:space="preserve">
<metadata> Svg Vector Icons : http://www.sfont.cn </metadata>
<g><path d="M10,10.1v280h419.9v-280H10L10,10.1z M360.1,220H80v-140h280v140H360.1z M10,360v210h419.9V360H10L10,360z M360.1,500H80v-70h280v70H360.1z M500.1,10.1V570H990V10.1H500.1L500.1,10.1z M920,500h-350V80.1h350V500L920,500z M10,640v350h979.9V640H10L10,640z M920,919.9H80V710h839.9v210H920z"/></g>
</svg>