<svg class="icon" viewBox="0 0 1024 1024" xmlns="http://www.w3.org/2000/svg" width="200" height="200"><defs><style/></defs><path d="M126.723 199.281q0-13.285 21.46-16.862t54.164-7.154 71.537-12.263 73.581-33.214q24.527-16.35 45.477-35.257t40.367-36.28 38.324-31.68T512 4.088v380.167H130.81q-2.044-41.9-3.065-87.377t-1.022-97.597zm344.399 802.236q-56.208-42.922-101.174-80.735t-80.223-75.624-61.318-78.18-44.966-87.377-30.659-102.707-17.884-126.211H512v568.207q-11.242-3.066-21.461-7.153t-19.417-10.22zm105.261-550.834h375.058q-5.11 70.515-15.84 125.19t-27.593 100.151-41.9 84.311-59.274 77.158-79.201 79.713-101.174 91.465q-22.483 12.263-50.076 15.329V450.683zM757.27 145.118q28.615 20.439 63.362 26.57t65.405 8.176 51.609 3.577 20.95 11.753q0 106.283-3.066 189.061H576.383V0q25.55 6.132 48.032 22.994t43.433 37.812 42.411 43.434 47.01 40.878z"/></svg>