<?xml version="1.0" standalone="no"?><!DOCTYPE svg PUBLIC "-//W3C//DTD SVG 1.1//EN" "http://www.w3.org/Graphics/SVG/1.1/DTD/svg11.dtd"><svg t="1574404351807" class="icon" viewBox="0 0 1024 1024" version="1.1" xmlns="http://www.w3.org/2000/svg" p-id="6918" xmlns:xlink="http://www.w3.org/1999/xlink" width="200" height="200"><defs><style type="text/css"></style></defs><path d="M936.857805 523.431322c0 0-42.065715-68.89513-88.786739-68.89513-46.68416 0-95.732122 71.223091-95.732122 71.223091s-44.28544-72.503296-93.440922-71.152538c-35.565466 0.977306-62.89705 30.882406-79.124275 64.06615L579.773747 790.800797c-3.253248 37.391565-5.677568 50.904371-12.002816 69.63497-6.651802 19.698688-19.544883 35.227341-31.650099 45.909606-14.30231 12.621414-29.59831 22.066586-45.854208 27.424563-16.28969 5.362074-30.098739 6.496973-51.536794 6.496973-19.498906 0-36.95104-2.963456-52.395418-8.850534-15.410586-5.887078-28.420403-14.313984-39.034573-25.246003-10.613146-10.930995-18.757939-24.08151-24.435507-39.525171-5.676544-15.443763-8.532685-40.195482-8.532685-59.270963l0-26.232454 74.435273 0c0 24.644301-0.17705 64.452915 8.81408 77.006848 9.02697 12.515021 22.756147 18.092032 41.148826 18.791014 16.728678 0.636518 30.032179-8.061645 30.032179-8.061645s11.922022-10.5472 14.992077-19.756954c2.674995-8.025805 3.565363-22.180147 3.565363-22.180147s2.080461-21.789286 2.080461-34.234675L489.399906 514.299369c-16.678502-18.827776-43.801395-61.938688-82.756096-60.927693-54.699008 1.419366-100.422144 70.059622-100.422144 70.059622s-56.065126-70.059622-93.440922-70.059622c-37.376717 0-91.077939 70.059622-91.077939 70.059622S105.343488 156.737741 476.742042 119.363584l53.70327-74.714624 51.373056 74.714624C964.889395 142.740992 936.857805 523.431322 936.857805 523.431322z" p-id="6919"></path></svg>