<svg class="icon" viewBox="0 0 1024 1024" xmlns="http://www.w3.org/2000/svg" width="200" height="200"><defs><style/></defs><path d="M936.858 523.431s-42.066-68.895-88.787-68.895c-46.684 0-95.732 71.223-95.732 71.223s-44.285-72.503-93.441-71.152c-35.565.977-62.897 30.882-79.124 64.066V790.8c-3.254 37.391-5.678 50.904-12.003 69.635-6.652 19.698-19.545 35.227-31.65 45.91-14.302 12.62-29.598 22.066-45.854 27.424-16.29 5.362-30.1 6.497-51.537 6.497-19.5 0-36.951-2.964-52.396-8.85-15.41-5.888-28.42-14.315-39.034-25.247-10.613-10.93-18.758-24.081-24.436-39.525-5.676-15.444-8.532-40.195-8.532-59.27v-26.233h74.435c0 24.644-.177 64.453 8.814 77.007 9.027 12.515 22.756 18.092 41.149 18.79 16.729.637 30.032-8.061 30.032-8.061s11.922-10.547 14.992-19.757c2.675-8.026 3.565-22.18 3.565-22.18s2.08-21.79 2.08-34.235V514.3c-16.678-18.827-43.8-61.938-82.755-60.927-54.7 1.419-100.422 70.06-100.422 70.06s-56.065-70.06-93.441-70.06c-37.377 0-91.078 70.06-91.078 70.06s-16.36-366.694 355.039-404.068l53.703-74.715 51.373 74.715C964.89 142.74 936.858 523.43 936.858 523.43z"/></svg>