<svg class="icon" viewBox="0 0 1024 1024" xmlns="http://www.w3.org/2000/svg" width="128" height="128"><defs><style/></defs><path d="M474.181 127.29H339.824q-13.933 0-21.398-6.468t-10.45-16.422-2.985-22.392 1.99-23.389q.995-10.947 3.981-23.885t8.46-21.895T333.852.896t21.896 4.976q14.928 8.957 33.838 19.407t36.824 20.9 33.34 18.91 23.388 13.435q9.952 6.967 14.929 15.426t3.98 15.924-7.961 12.44-19.905 4.977zm77.629-.994H685.17q13.934 0 21.398-6.47t10.45-16.42 2.986-22.394-.996-23.388q-1.99-10.947-4.478-23.388t-7.962-21.397T692.138.896t-21.895 3.98q-14.929 8.958-33.838 19.408t-37.322 20.9-33.838 18.91-22.393 13.435q-10.947 6.967-15.923 15.426t-3.981 15.924 7.962 12.44 20.9 4.977zm-91.562 65.685h-288.62q-31.847 0-41.302 10.45t-9.454 33.34v87.582q0 24.88 10.45 36.823t41.302 11.943h287.624V191.981zm108.48 0h284.639q31.847 0 43.292 12.44t11.446 35.332v85.59q0 23.886-10.45 35.331t-41.303 11.445H568.73V191.981zm-108.48 232.886H154.71v376.2q0 50.757 28.862 78.624t89.571 27.866h187.105v-482.69zm108.48 0h304.543V798.08q-.995 50.757-28.862 80.117t-88.576 29.36H568.73V424.866z"/></svg>