<svg class="icon" viewBox="0 0 1024 1024" xmlns="http://www.w3.org/2000/svg" width="128" height="128"><defs><style/></defs><path d="M468.16 241.998H768.9v151.937H468.16V241.998z"/><path d="M1014.893 82.87a130.087 130.087 0 00-8.266-17.137c-.525-.914-1.062-1.82-1.606-2.718C982.059 25.267 940.53.003 893.21.003H130.789c-47.318 0-88.848 25.263-111.808 63.012a126.33 126.33 0 00-1.607 2.718 128.658 128.658 0 00-3.023 5.557C5.193 89.144.024 109.366.024 130.771v762.031c0 72.106 58.662 130.77 130.767 130.77h94.838c.475.029.952.05 1.434.05.483 0 .96-.021 1.434-.05h567.008c.474.029.951.05 1.434.05s.96-.021 1.435-.05h94.838c72.104 0 130.767-58.664 130.767-130.77V130.771c-.002-16.899-3.223-33.06-9.086-47.9zm-767.59 780.972c3.916-28.977 5.483-51.691 5.483-93.982v-251.4c0-36.028.783-57.956 3.132-96.331-25.062 44.642-42.292 69.702-79.883 114.344-12.532-24.281-15.664-28.978-32.112-46.208 58.74-59.522 108.08-135.49 144.106-220.857 18.013-43.075 31.328-85.366 35.244-111.21l53.255 20.362c-25.844 72.053-48.557 124.526-74.402 172.3v421.35c0 35.243 1.567 65.003 5.483 91.632h-60.305zm619.495-29.76c-30.544 1.566-43.858 2.35-62.655 2.35-108.86 0-195.793-17.23-253.75-51.693-38.374-21.928-68.919-53.254-94.762-96.33-24.28 70.486-47.775 113.56-93.2 169.166-11.747-14.88-21.928-22.711-39.158-34.459 46.208-50.908 75.186-103.38 97.113-180.132 13.314-45.425 21.147-96.33 21.147-135.49 0-3.132 0-4.698-.784-9.398l54.822 7.05c-3.133 12.53-3.133 14.096-13.313 73.618-3.133 19.579-6.267 33.676-10.964 54.822 33.675 62.656 67.352 95.547 122.175 120.608v-315.62h-93.98c-46.209 0-59.523.784-82.236 3.134 2.35-18.011 3.133-33.675 3.133-62.653V254.528c0-30.543-.784-43.075-3.133-61.87 25.064 3.133 47.775 3.916 84.583 3.916h234.17c37.593 0 59.523-.783 84.584-3.917-2.35 17.23-3.134 31.328-3.134 63.438v122.96c0 28.194.784 45.422 3.134 62.653-24.278-2.35-45.426-3.134-81.45-3.134h-96.33v123.744h131.572c29.76 0 49.341-1.566 69.705-4.7v54.04c-21.93-3.131-41.51-4.698-69.705-4.698H642.809v164.466c43.856 9.4 83.017 13.314 139.406 13.314 33.676 0 57.172-.782 100.247-3.914-9.4 21.928-12.53 32.109-15.664 53.255z"/></svg>