<svg t="1597310328839" class="icon" viewBox="0 0 1024 1024" version="1.1" xmlns="http://www.w3.org/2000/svg" p-id="13178" width="200" height="200"><path d="M895.4 789.8h-54.2V428.4c0-5.5-5.4-11-5.4-11L711 291.6V165.7c0-16.4-10.8-27.4-27.1-27.4s-27.1 10.9-27.1 27.4v71.2L532 110.9c-10.9-10.9-27.1-10.9-38 0L184.8 417.5c-5.4 5.5-5.4 11-5.4 16.4v361.3h-54.2c-16.3 0-27.1 10.9-27.1 27.4 0 16.4 10.8 27.4 27.1 27.4h775.7c16.3 0 27.1-10.9 27.1-27.4 0-16.4-16.3-32.8-32.6-32.8zM510.3 258.7c30 0 54.2 24.5 54.2 54.7 0 30.2-24.3 54.7-54.2 54.7S456 343.7 456 313.5c0-30.2 24.3-54.8 54.3-54.8z m77.9 531.1H430.8v-241h157.4v241z" p-id="13179"></path></svg>
