<svg class="icon" viewBox="0 0 1024 1024" xmlns="http://www.w3.org/2000/svg" width="200" height="200"><defs><style/></defs><path d="M488.163 454.696c0 40.981 33.468 74.205 74.752 74.205 41.284 0 74.752-33.223 74.752-74.205 0-40.983-33.468-74.206-74.752-74.206-41.284 0-74.752 33.223-74.752 74.206zm0 0"/><path d="M264.015 79.124c-55.195 0-99.773 44.275-99.773 98.892v74.26h-63.937c-20.88 0-37.899 16.904-37.899 37.755 0 20.996 16.967 37.754 37.9 37.754h63.936v72.902h-63.937c-20.88 0-37.899 16.903-37.899 37.755 0 20.999 16.967 37.754 37.9 37.754h63.936v72.907h-63.937c-20.88 0-37.899 16.903-37.899 37.754 0 20.996 16.967 37.755 37.9 37.755h63.936v221.371c0 54.766 44.669 98.893 99.773 98.893h597.803c55.196 0 99.775-44.276 99.775-98.893V178.016c0-54.769-44.674-98.892-99.775-98.892H264.015zm298.9 647.666c-30.965 0-149.503-154.216-149.503-272.094 0-117.878 77.317-157.486 149.503-157.486 72.187 0 149.504 37.254 149.504 157.486S593.879 726.79 562.915 726.79zm0 0"/></svg>