<svg class="icon" viewBox="0 0 1024 1024" xmlns="http://www.w3.org/2000/svg" width="200" height="200"><defs><style/></defs><path d="M638.722 841.063q-84.799 27.631-170.074 20.009T309.53 816.29 178.997 715.294 94.675 566.657t-20.01-170.074 44.782-159.594T220.92 105.98t149.113-84.322 170.075-20.01 159.117 45.258 130.533 101.473 84.323 148.636 20.008 170.075-44.781 159.117T787.835 756.74t-149.113 84.323zm197.23-520.228q-22.868-68.601-68.602-120.529t-105.284-81.94-128.628-36.207-137.68 16.674-120.528 68.602-81.94 105.284-36.684 128.628 16.198 137.679 68.601 120.529 105.761 81.94 129.104 36.207 137.68-16.674 120.528-68.602 81.94-105.284 36.207-128.627-16.674-137.68zM602.515 730.538q-61.932 20.01-123.864 14.769T362.41 712.912t-95.756-73.842-61.456-108.62-14.768-124.34 32.395-116.717 74.318-95.756T406.24 132.18t123.864-14.292 116.241 32.872 95.757 73.842 61.455 108.619 14.768 124.34-32.395 116.241-74.318 95.28-109.095 61.455zM504.378 373.24q-24.773 0-41.447 16.674t-16.674 41.447 16.674 41.923 41.447 17.15 41.923-17.15 17.15-41.923-17.15-41.447-41.923-16.674zm-221.05-95.28l135.298 78.13q4.764-2.859 9.528-6.67 4.764-2.858 9.051-6.67t9.052-6.669q11.434-6.67 21.914-9.528 5.717-1.906 11.434-2.858v-156.26q-16.198.954-33.348 4.765-15.245 3.811-34.3 10.004t-40.971 18.58q-24.773 14.292-41.447 28.107t-27.154 24.297q-11.434 12.386-19.056 24.772zm-23.82 265.831l136.25-78.13q-1.905-5.716-2.858-11.433-.953-4.764-1.429-10.48t-.476-11.434q0-13.34 2.858-23.82.953-5.717 2.858-11.434l-134.344-78.13q-6.67 13.34-12.386 30.49-4.764 14.292-9.052 34.777t-4.288 45.258q-.952 28.584 2.859 50.022t8.575 35.73q4.764 17.15 11.434 28.584zm219.144 153.4l.953-157.211q-5.717-.953-11.434-3.811-10.48-2.859-20.008-9.528-5.717-2.859-10.481-6.67t-8.575-7.622-8.576-7.623l-134.344 77.177q8.575 13.339 20.009 26.678 10.48 11.434 25.725 24.773t37.16 26.678q23.82 14.292 44.304 21.915t34.778 11.433q17.15 3.811 30.49 3.811zm245.822-110.524l-135.297-78.13q-4.764 3.812-8.576 7.623-3.81 2.858-8.575 6.193t-9.528 6.193q-5.717 3.811-11.91 5.717t-10.957 3.811q-5.717 1.906-10.48 2.859V697.19q15.244-.952 32.394-4.764 15.245-2.858 34.778-9.528t41.446-19.056q24.773-13.339 40.97-27.154t26.679-25.25q11.434-12.386 19.056-24.772zm23.82-267.736l-135.297 78.13 1.905 11.433q.953 4.764 1.43 10.957t.476 10.957q0 6.67-.953 13.34t-1.906 11.433q-1.905 5.717-2.858 11.433l134.344 77.177q6.67-13.34 12.387-30.49 4.764-14.292 9.051-34.777t4.288-45.258q0-27.63-3.335-49.545t-8.099-36.206q-4.764-17.15-11.433-28.584zm-218.19-153.4v157.21l11.433 3.812q4.764 1.906 10.004 4.288t10.004 5.24q4.764 3.811 10.005 7.146t9.051 7.146l8.576 8.575 134.344-78.13q-8.575-12.386-20.009-25.725-10.48-11.433-25.725-25.249t-37.16-27.155q-24.772-14.292-45.257-21.438t-34.777-10.957q-17.15-3.81-30.49-4.764z"/></svg>