<svg class="icon" viewBox="0 0 1024 1024" xmlns="http://www.w3.org/2000/svg" width="200" height="200"><defs><style/></defs><path d="M930.135 903.47H93.87a8.54 8.54 0 01-8.535-8.54v-25.6c0-4.71 3.82-8.53 8.535-8.53h836.265a8.53 8.53 0 018.53 8.53v25.6c0 4.71-3.82 8.54-8.53 8.54zm-183.47-238.94h-170.66a8.535 8.535 0 01-8.54-8.53v-25.6c0-4.71 3.82-8.53 8.54-8.53h170.66c4.72 0 8.54 3.82 8.54 8.53V656c0 4.71-3.82 8.53-8.54 8.53zm157.87-544H119.47a8.536 8.536 0 00-8.535 8.535V794.67c0 4.71 3.82 8.53 8.535 8.53h785.065a8.53 8.53 0 008.53-8.53V129.065c0-4.71-3.82-8.535-8.53-8.535zm-563.2 149.335c51.84 0 93.87 42.025 93.87 93.865s-42.03 93.865-93.87 93.865-93.865-42.025-93.865-93.865 42.025-93.865 93.865-93.865zM247.47 515.2a8.533 8.533 0 018.535-8.535H426.67a8.533 8.533 0 018.535 8.535v25.6c0 4.71-3.82 8.53-8.535 8.53H256.005a8.53 8.53 0 01-8.535-8.53v-25.6zm520.684-82.714l-.149.149v.246l-16.03 16.025h-.251l-68.05 68.05a8.51 8.51 0 01-12.058 0l-18.11-18.099a8.535 8.535 0 010-12.063l37.889-37.883h-54.14l-212.239 212.24a8.515 8.515 0 01-6.876 3.522H256.005a8.53 8.53 0 01-8.535-8.53v-25.6c0-4.72 3.82-8.54 8.535-8.54H403.82L616.064 409.76a8.515 8.515 0 016.881-3.518h70.882l-40.31-40.315a8.525 8.525 0 010-12.067l18.099-18.105a8.53 8.53 0 0112.068 0l84.47 84.475c1.69 1.69 2.508 3.912 2.488 6.129a8.507 8.507 0 01-2.488 6.128z"/></svg>