<svg class="icon" viewBox="0 0 1131 1024" xmlns="http://www.w3.org/2000/svg" width="220.898" height="200"><defs><style/></defs><path d="M745.427 506.826A323.476 323.476 0 00584.66 974.201L3.297 972.584a485.214 485.214 0 01298.577-505.586 269.474 269.474 0 11366.645 0 488.337 488.337 0 0176.962 39.882zm-62.194 65.32c24.414-21.557 53.14-38.265 84.776-48.666 17.785 22.204 45.11 36.432 75.776 36.432s57.99-14.228 75.776-36.432a242.257 242.257 0 0185.908 49.69 96.849 96.849 0 006.36 83.753c15.306 26.57 41.283 43.116 69.416 47.427a243.604 243.604 0 01.054 98.897 96.849 96.849 0 00-69.524 47.428 96.849 96.849 0 00-6.252 83.968c-24.737 22.204-54.056 39.343-86.393 49.906a96.849 96.849 0 00-75.884-36.594c-30.558 0-57.883 14.174-75.668 36.325a242.365 242.365 0 01-89.25-53.033 96.795 96.795 0 00-6.898-82.459c-14.552-25.33-38.804-41.499-65.375-46.727a243.658 243.658 0 011.402-102.777 96.795 96.795 0 0068.015-47.158c14.605-25.276 16.546-54.38 7.76-79.98zm160.606 278.798a97.01 97.01 0 100-194.021 97.01 97.01 0 000 194.021z"/></svg>