<svg class="icon" viewBox="0 0 1238 1024" xmlns="http://www.w3.org/2000/svg" width="154.75" height="128"><defs><style/></defs><path d="M1024 853.333H853.333V768H1024v85.333zm-170.667-256H1024v85.334H853.333v-85.334zM1152 1024H0v-85.333h85.333v-768C85.333 76.416 161.75 0 256 0h384c94.25 0 170.667 76.416 170.667 170.667v768h256V597.333c0-47.146-38.187-85.333-85.334-85.333H810.667v-85.333h170.666c94.251 0 170.667 76.416 170.667 170.666v341.334h85.333V1024H1152zM725.333 853.333V170.667c0-47.104-38.186-85.334-85.333-85.334H256c-47.147 0-85.333 38.23-85.333 85.334v768h554.666v-85.334zm-256-42.666v-85.334H640v85.334H469.333zm0-341.334H640v85.334H469.333v-85.334zm0-256H640v85.334H469.333v-85.334zM256 725.333h170.667v85.334H256v-85.334zm0-256h170.667v85.334H256v-85.334zm0-256h170.667v85.334H256v-85.334z"/></svg>