<svg class="icon" viewBox="0 0 1024 1024" xmlns="http://www.w3.org/2000/svg" width="128" height="128"><defs><style/></defs><path d="M832.576 132.672h-92.032V71.36H657.92C631.424 34.816 582.528 9.984 525.888 9.984c-56.64 0-105.536 24.832-132.096 61.312h-82.56v61.312H219.2c-67.776 0-122.688 54.912-122.688 122.688v613.376c0 67.776 54.912 122.688 122.688 122.688h613.376c67.776 0 122.688-54.912 122.688-122.688V255.36c0-67.776-54.912-122.688-122.688-122.688zm-469.76-3.136h72.512c0-36.8 40.576-66.688 90.624-66.688s90.624 29.824 90.624 66.688h72.512v133.312H362.816V129.536zm367.808 668.416H307.52c-14.016 0-25.344-11.328-25.344-25.344 0-14.016 11.328-25.344 25.344-25.344h423.104c14.016 0 25.344 11.328 25.344 25.344-.064 14.016-11.392 25.344-25.344 25.344zm0-150.592H307.52c-14.016 0-25.344-11.328-25.344-25.344 0-14.016 11.328-25.344 25.344-25.344h423.104c14.016 0 25.344 11.328 25.344 25.344-.064 14.016-11.392 25.344-25.344 25.344zm0-149.248H307.52c-14.016 0-25.344-11.328-25.344-25.344 0-14.016 11.328-25.344 25.344-25.344h423.104c14.016 0 25.344 11.328 25.344 25.344-.064 13.952-11.392 25.344-25.344 25.344z"/></svg>